<svg viewBox="0 0 1600 900" style="background-color:#a7ff99" xmlns="http://www.w3.org/2000/svg">

        <!--
            Font Awesome Free 5.15.2 by @fontawesome - https://fontawesome.com License - https://fontawesome.com/license/free
            (Icons: CC BY 4.0, Fonts: SIL OFL 1.1, Code: MIT License)
        -->
        <rect style="fill:#a7ff99" x="0" y="0" width="1600" height="900"/>


        <g transform="translate(79 201) scale(0.10590448045232989 0.10590448045232989)"
           style="fill: #6aff52">
            <g transform="rotate(42 0 0)">
                <ns0:path xmlns:ns0="http://www.w3.org/2000/svg" d="M64 96H0c0 123.7 100.3 224 224 224v144c0 8.8 7.2 16 16 16h32c8.8 0 16-7.2 16-16V320C288 196.3 187.7 96 64 96zm384-64c-84.2 0-157.4 46.5-195.7 115.2 27.7 30.2 48.2 66.9 59 107.6C424 243.1 512 147.9 512 32h-64z" />
            </g>
        </g>

        <g transform="translate(126 446) scale(0.24386447958504187 0.24386447958504187)"
           style="fill: #7bff66">
            <g transform="rotate(209 0 0)">
                <ns0:path xmlns:ns0="http://www.w3.org/2000/svg" d="M64 96H0c0 123.7 100.3 224 224 224v144c0 8.8 7.2 16 16 16h32c8.8 0 16-7.2 16-16V320C288 196.3 187.7 96 64 96zm384-64c-84.2 0-157.4 46.5-195.7 115.2 27.7 30.2 48.2 66.9 59 107.6C424 243.1 512 147.9 512 32h-64z" />
            </g>
        </g>

        <g transform="translate(997 64) scale(0.24418537844854094 0.24418537844854094)"
           style="fill: #53ff37">
            <g transform="rotate(235 0 0)">
                <ns0:path xmlns:ns0="http://www.w3.org/2000/svg" d="M64 96H0c0 123.7 100.3 224 224 224v144c0 8.8 7.2 16 16 16h32c8.8 0 16-7.2 16-16V320C288 196.3 187.7 96 64 96zm384-64c-84.2 0-157.4 46.5-195.7 115.2 27.7 30.2 48.2 66.9 59 107.6C424 243.1 512 147.9 512 32h-64z" />
            </g>
        </g>

        <g transform="translate(153 541) scale(0.23863214130099958 0.23863214130099958)"
           style="fill: #84ff70">
            <g transform="rotate(327 0 0)">
                <ns0:path xmlns:ns0="http://www.w3.org/2000/svg" d="M64 96H0c0 123.7 100.3 224 224 224v144c0 8.8 7.2 16 16 16h32c8.8 0 16-7.2 16-16V320C288 196.3 187.7 96 64 96zm384-64c-84.2 0-157.4 46.5-195.7 115.2 27.7 30.2 48.2 66.9 59 107.6C424 243.1 512 147.9 512 32h-64z" />
            </g>
        </g>

        <g transform="translate(443 562) scale(0.10131258063452957 0.10131258063452957)"
           style="fill: #9bfe8b">
            <g transform="rotate(343 0 0)">
                <ns0:path xmlns:ns0="http://www.w3.org/2000/svg" d="M64 96H0c0 123.7 100.3 224 224 224v144c0 8.8 7.2 16 16 16h32c8.8 0 16-7.2 16-16V320C288 196.3 187.7 96 64 96zm384-64c-84.2 0-157.4 46.5-195.7 115.2 27.7 30.2 48.2 66.9 59 107.6C424 243.1 512 147.9 512 32h-64z" />
            </g>
        </g>

        <g transform="translate(389 105) scale(0.16334947948083495 0.16334947948083495)"
           style="fill: #7ffe6a">
            <g transform="rotate(331 0 0)">
                <ns0:path xmlns:ns0="http://www.w3.org/2000/svg" d="M64 96H0c0 123.7 100.3 224 224 224v144c0 8.8 7.2 16 16 16h32c8.8 0 16-7.2 16-16V320C288 196.3 187.7 96 64 96zm384-64c-84.2 0-157.4 46.5-195.7 115.2 27.7 30.2 48.2 66.9 59 107.6C424 243.1 512 147.9 512 32h-64z" />
            </g>
        </g>

        <g transform="translate(1091 311) scale(0.10280451482774204 0.10280451482774204)"
           style="fill: #a1ff92">
            <g transform="rotate(332 0 0)">
                <ns0:path xmlns:ns0="http://www.w3.org/2000/svg" d="M64 96H0c0 123.7 100.3 224 224 224v144c0 8.8 7.2 16 16 16h32c8.8 0 16-7.2 16-16V320C288 196.3 187.7 96 64 96zm384-64c-84.2 0-157.4 46.5-195.7 115.2 27.7 30.2 48.2 66.9 59 107.6C424 243.1 512 147.9 512 32h-64z" />
            </g>
        </g>

        <g transform="translate(536 874) scale(0.11464000677588218 0.11464000677588218)"
           style="fill: #4fff33">
            <g transform="rotate(26 0 0)">
                <ns0:path xmlns:ns0="http://www.w3.org/2000/svg" d="M64 96H0c0 123.7 100.3 224 224 224v144c0 8.8 7.2 16 16 16h32c8.8 0 16-7.2 16-16V320C288 196.3 187.7 96 64 96zm384-64c-84.2 0-157.4 46.5-195.7 115.2 27.7 30.2 48.2 66.9 59 107.6C424 243.1 512 147.9 512 32h-64z" />
            </g>
        </g>

        <g transform="translate(-27 -96) scale(0.18789246601677978 0.18789246601677978)"
           style="fill: #60fe47">
            <g transform="rotate(153 0 0)">
                <ns0:path xmlns:ns0="http://www.w3.org/2000/svg" d="M64 96H0c0 123.7 100.3 224 224 224v144c0 8.8 7.2 16 16 16h32c8.8 0 16-7.2 16-16V320C288 196.3 187.7 96 64 96zm384-64c-84.2 0-157.4 46.5-195.7 115.2 27.7 30.2 48.2 66.9 59 107.6C424 243.1 512 147.9 512 32h-64z" />
            </g>
        </g>

        <g transform="translate(696 -8) scale(0.24952733852818737 0.24952733852818737)"
           style="fill: #70ff59">
            <g transform="rotate(266 0 0)">
                <ns0:path xmlns:ns0="http://www.w3.org/2000/svg" d="M64 96H0c0 123.7 100.3 224 224 224v144c0 8.8 7.2 16 16 16h32c8.8 0 16-7.2 16-16V320C288 196.3 187.7 96 64 96zm384-64c-84.2 0-157.4 46.5-195.7 115.2 27.7 30.2 48.2 66.9 59 107.6C424 243.1 512 147.9 512 32h-64z" />
            </g>
        </g>

        <g transform="translate(491 936) scale(0.10412948015092145 0.10412948015092145)"
           style="fill: #8cfe7a">
            <g transform="rotate(153 0 0)">
                <ns0:path xmlns:ns0="http://www.w3.org/2000/svg" d="M64 96H0c0 123.7 100.3 224 224 224v144c0 8.8 7.2 16 16 16h32c8.8 0 16-7.2 16-16V320C288 196.3 187.7 96 64 96zm384-64c-84.2 0-157.4 46.5-195.7 115.2 27.7 30.2 48.2 66.9 59 107.6C424 243.1 512 147.9 512 32h-64z" />
            </g>
        </g>

        <g transform="translate(1145 621) scale(0.22436443622134453 0.22436443622134453)"
           style="fill: #95ff84">
            <g transform="rotate(292 0 0)">
                <ns0:path xmlns:ns0="http://www.w3.org/2000/svg" d="M64 96H0c0 123.7 100.3 224 224 224v144c0 8.8 7.2 16 16 16h32c8.8 0 16-7.2 16-16V320C288 196.3 187.7 96 64 96zm384-64c-84.2 0-157.4 46.5-195.7 115.2 27.7 30.2 48.2 66.9 59 107.6C424 243.1 512 147.9 512 32h-64z" />
            </g>
        </g>

        <g transform="translate(216 896) scale(0.16234673114609754 0.16234673114609754)"
           style="fill: #72fe5b">
            <g transform="rotate(185 0 0)">
                <ns0:path xmlns:ns0="http://www.w3.org/2000/svg" d="M64 96H0c0 123.7 100.3 224 224 224v144c0 8.8 7.2 16 16 16h32c8.8 0 16-7.2 16-16V320C288 196.3 187.7 96 64 96zm384-64c-84.2 0-157.4 46.5-195.7 115.2 27.7 30.2 48.2 66.9 59 107.6C424 243.1 512 147.9 512 32h-64z" />
            </g>
        </g>

        <g transform="translate(1673 127) scale(0.18232022467913667 0.18232022467913667)"
           style="fill: #77ff61">
            <g transform="rotate(172 0 0)">
                <ns0:path xmlns:ns0="http://www.w3.org/2000/svg" d="M64 96H0c0 123.7 100.3 224 224 224v144c0 8.8 7.2 16 16 16h32c8.8 0 16-7.2 16-16V320C288 196.3 187.7 96 64 96zm384-64c-84.2 0-157.4 46.5-195.7 115.2 27.7 30.2 48.2 66.9 59 107.6C424 243.1 512 147.9 512 32h-64z" />
            </g>
        </g>

        <g transform="translate(49 535) scale(0.2350931355029744 0.2350931355029744)"
           style="fill: #81ff6d">
            <g transform="rotate(136 0 0)">
                <ns0:path xmlns:ns0="http://www.w3.org/2000/svg" d="M64 96H0c0 123.7 100.3 224 224 224v144c0 8.8 7.2 16 16 16h32c8.8 0 16-7.2 16-16V320C288 196.3 187.7 96 64 96zm384-64c-84.2 0-157.4 46.5-195.7 115.2 27.7 30.2 48.2 66.9 59 107.6C424 243.1 512 147.9 512 32h-64z" />
            </g>
        </g>

        <g transform="translate(374 864) scale(0.1467381134650862 0.1467381134650862)"
           style="fill: #65ff4c">
            <g transform="rotate(358 0 0)">
                <ns0:path xmlns:ns0="http://www.w3.org/2000/svg" d="M64 96H0c0 123.7 100.3 224 224 224v144c0 8.8 7.2 16 16 16h32c8.8 0 16-7.2 16-16V320C288 196.3 187.7 96 64 96zm384-64c-84.2 0-157.4 46.5-195.7 115.2 27.7 30.2 48.2 66.9 59 107.6C424 243.1 512 147.9 512 32h-64z" />
            </g>
        </g>

        <g transform="translate(16 783) scale(0.1295626591550812 0.1295626591550812)"
           style="fill: #83ff6f">
            <g transform="rotate(295 0 0)">
                <ns0:path xmlns:ns0="http://www.w3.org/2000/svg" d="M64 96H0c0 123.7 100.3 224 224 224v144c0 8.8 7.2 16 16 16h32c8.8 0 16-7.2 16-16V320C288 196.3 187.7 96 64 96zm384-64c-84.2 0-157.4 46.5-195.7 115.2 27.7 30.2 48.2 66.9 59 107.6C424 243.1 512 147.9 512 32h-64z" />
            </g>
        </g>

        <g transform="translate(304 -31) scale(0.17929359960930635 0.17929359960930635)"
           style="fill: #a6ff98">
            <g transform="rotate(194 0 0)">
                <ns0:path xmlns:ns0="http://www.w3.org/2000/svg" d="M64 96H0c0 123.7 100.3 224 224 224v144c0 8.8 7.2 16 16 16h32c8.8 0 16-7.2 16-16V320C288 196.3 187.7 96 64 96zm384-64c-84.2 0-157.4 46.5-195.7 115.2 27.7 30.2 48.2 66.9 59 107.6C424 243.1 512 147.9 512 32h-64z" />
            </g>
        </g>

        <g transform="translate(1627 558) scale(0.15161963693963645 0.15161963693963645)"
           style="fill: #6ffe58">
            <g transform="rotate(20 0 0)">
                <ns0:path xmlns:ns0="http://www.w3.org/2000/svg" d="M64 96H0c0 123.7 100.3 224 224 224v144c0 8.8 7.2 16 16 16h32c8.8 0 16-7.2 16-16V320C288 196.3 187.7 96 64 96zm384-64c-84.2 0-157.4 46.5-195.7 115.2 27.7 30.2 48.2 66.9 59 107.6C424 243.1 512 147.9 512 32h-64z" />
            </g>
        </g>

        <g transform="translate(52 10) scale(0.14568718843389014 0.14568718843389014)"
           style="fill: #5efe45">
            <g transform="rotate(34 0 0)">
                <ns0:path xmlns:ns0="http://www.w3.org/2000/svg" d="M64 96H0c0 123.7 100.3 224 224 224v144c0 8.8 7.2 16 16 16h32c8.8 0 16-7.2 16-16V320C288 196.3 187.7 96 64 96zm384-64c-84.2 0-157.4 46.5-195.7 115.2 27.7 30.2 48.2 66.9 59 107.6C424 243.1 512 147.9 512 32h-64z" />
            </g>
        </g>

        <g transform="translate(311 360) scale(0.22304665001824825 0.22304665001824825)"
           style="fill: #69ff51">
            <g transform="rotate(229 0 0)">
                <ns0:path xmlns:ns0="http://www.w3.org/2000/svg" d="M64 96H0c0 123.7 100.3 224 224 224v144c0 8.8 7.2 16 16 16h32c8.8 0 16-7.2 16-16V320C288 196.3 187.7 96 64 96zm384-64c-84.2 0-157.4 46.5-195.7 115.2 27.7 30.2 48.2 66.9 59 107.6C424 243.1 512 147.9 512 32h-64z" />
            </g>
        </g>

        <g transform="translate(1433 693) scale(0.18240655276010537 0.18240655276010537)"
           style="fill: #78fe63">
            <g transform="rotate(85 0 0)">
                <ns0:path xmlns:ns0="http://www.w3.org/2000/svg" d="M64 96H0c0 123.7 100.3 224 224 224v144c0 8.8 7.2 16 16 16h32c8.8 0 16-7.2 16-16V320C288 196.3 187.7 96 64 96zm384-64c-84.2 0-157.4 46.5-195.7 115.2 27.7 30.2 48.2 66.9 59 107.6C424 243.1 512 147.9 512 32h-64z" />
            </g>
        </g>

        <g transform="translate(1366 24) scale(0.236172961151828 0.236172961151828)"
           style="fill: #8aff77">
            <g transform="rotate(9 0 0)">
                <ns0:path xmlns:ns0="http://www.w3.org/2000/svg" d="M64 96H0c0 123.7 100.3 224 224 224v144c0 8.8 7.2 16 16 16h32c8.8 0 16-7.2 16-16V320C288 196.3 187.7 96 64 96zm384-64c-84.2 0-157.4 46.5-195.7 115.2 27.7 30.2 48.2 66.9 59 107.6C424 243.1 512 147.9 512 32h-64z" />
            </g>
        </g>

        <g transform="translate(621 690) scale(0.1606884858559651 0.1606884858559651)"
           style="fill: #65ff4d">
            <g transform="rotate(186 0 0)">
                <ns0:path xmlns:ns0="http://www.w3.org/2000/svg" d="M64 96H0c0 123.7 100.3 224 224 224v144c0 8.8 7.2 16 16 16h32c8.8 0 16-7.2 16-16V320C288 196.3 187.7 96 64 96zm384-64c-84.2 0-157.4 46.5-195.7 115.2 27.7 30.2 48.2 66.9 59 107.6C424 243.1 512 147.9 512 32h-64z" />
            </g>
        </g>

        <g transform="translate(450 559) scale(0.24997353366110567 0.24997353366110567)"
           style="fill: #85ff72">
            <g transform="rotate(182 0 0)">
                <ns0:path xmlns:ns0="http://www.w3.org/2000/svg" d="M64 96H0c0 123.7 100.3 224 224 224v144c0 8.8 7.2 16 16 16h32c8.8 0 16-7.2 16-16V320C288 196.3 187.7 96 64 96zm384-64c-84.2 0-157.4 46.5-195.7 115.2 27.7 30.2 48.2 66.9 59 107.6C424 243.1 512 147.9 512 32h-64z" />
            </g>
        </g>

        <g transform="translate(1468 924) scale(0.12162232365898415 0.12162232365898415)"
           style="fill: #a6ff98">
            <g transform="rotate(229 0 0)">
                <ns0:path xmlns:ns0="http://www.w3.org/2000/svg" d="M64 96H0c0 123.7 100.3 224 224 224v144c0 8.8 7.2 16 16 16h32c8.8 0 16-7.2 16-16V320C288 196.3 187.7 96 64 96zm384-64c-84.2 0-157.4 46.5-195.7 115.2 27.7 30.2 48.2 66.9 59 107.6C424 243.1 512 147.9 512 32h-64z" />
            </g>
        </g>

        <g transform="translate(1030 756) scale(0.17224461306467473 0.17224461306467473)"
           style="fill: #82ff6e">
            <g transform="rotate(150 0 0)">
                <ns0:path xmlns:ns0="http://www.w3.org/2000/svg" d="M64 96H0c0 123.7 100.3 224 224 224v144c0 8.8 7.2 16 16 16h32c8.8 0 16-7.2 16-16V320C288 196.3 187.7 96 64 96zm384-64c-84.2 0-157.4 46.5-195.7 115.2 27.7 30.2 48.2 66.9 59 107.6C424 243.1 512 147.9 512 32h-64z" />
            </g>
        </g>

        <g transform="translate(1419 524) scale(0.2090249427354966 0.2090249427354966)"
           style="fill: #80ff6c">
            <g transform="rotate(337 0 0)">
                <ns0:path xmlns:ns0="http://www.w3.org/2000/svg" d="M64 96H0c0 123.7 100.3 224 224 224v144c0 8.8 7.2 16 16 16h32c8.8 0 16-7.2 16-16V320C288 196.3 187.7 96 64 96zm384-64c-84.2 0-157.4 46.5-195.7 115.2 27.7 30.2 48.2 66.9 59 107.6C424 243.1 512 147.9 512 32h-64z" />
            </g>
        </g>

        <g transform="translate(403 373) scale(0.17053271781728108 0.17053271781728108)"
           style="fill: #52fe36">
            <g transform="rotate(77 0 0)">
                <ns0:path xmlns:ns0="http://www.w3.org/2000/svg" d="M64 96H0c0 123.7 100.3 224 224 224v144c0 8.8 7.2 16 16 16h32c8.8 0 16-7.2 16-16V320C288 196.3 187.7 96 64 96zm384-64c-84.2 0-157.4 46.5-195.7 115.2 27.7 30.2 48.2 66.9 59 107.6C424 243.1 512 147.9 512 32h-64z" />
            </g>
        </g>

        <g transform="translate(1139 648) scale(0.22723717028983645 0.22723717028983645)"
           style="fill: #6dff56">
            <g transform="rotate(328 0 0)">
                <ns0:path xmlns:ns0="http://www.w3.org/2000/svg" d="M64 96H0c0 123.7 100.3 224 224 224v144c0 8.8 7.2 16 16 16h32c8.8 0 16-7.2 16-16V320C288 196.3 187.7 96 64 96zm384-64c-84.2 0-157.4 46.5-195.7 115.2 27.7 30.2 48.2 66.9 59 107.6C424 243.1 512 147.9 512 32h-64z" />
            </g>
        </g>

        <g transform="translate(1094 901) scale(0.17506904296505457 0.17506904296505457)"
           style="fill: #8dff7b">
            <g transform="rotate(179 0 0)">
                <ns0:path xmlns:ns0="http://www.w3.org/2000/svg" d="M64 96H0c0 123.7 100.3 224 224 224v144c0 8.8 7.2 16 16 16h32c8.8 0 16-7.2 16-16V320C288 196.3 187.7 96 64 96zm384-64c-84.2 0-157.4 46.5-195.7 115.2 27.7 30.2 48.2 66.9 59 107.6C424 243.1 512 147.9 512 32h-64z" />
            </g>
        </g>

        <g transform="translate(1495 79) scale(0.1952061783579923 0.1952061783579923)"
           style="fill: #74ff5d">
            <g transform="rotate(311 0 0)">
                <ns0:path xmlns:ns0="http://www.w3.org/2000/svg" d="M64 96H0c0 123.7 100.3 224 224 224v144c0 8.8 7.2 16 16 16h32c8.8 0 16-7.2 16-16V320C288 196.3 187.7 96 64 96zm384-64c-84.2 0-157.4 46.5-195.7 115.2 27.7 30.2 48.2 66.9 59 107.6C424 243.1 512 147.9 512 32h-64z" />
            </g>
        </g>

        <g transform="translate(1086 592) scale(0.2427605533780503 0.2427605533780503)"
           style="fill: #81ff6d">
            <g transform="rotate(85 0 0)">
                <ns0:path xmlns:ns0="http://www.w3.org/2000/svg" d="M64 96H0c0 123.7 100.3 224 224 224v144c0 8.8 7.2 16 16 16h32c8.8 0 16-7.2 16-16V320C288 196.3 187.7 96 64 96zm384-64c-84.2 0-157.4 46.5-195.7 115.2 27.7 30.2 48.2 66.9 59 107.6C424 243.1 512 147.9 512 32h-64z" />
            </g>
        </g>

        <g transform="translate(805 191) scale(0.22119605111902324 0.22119605111902324)"
           style="fill: #71ff5b">
            <g transform="rotate(88 0 0)">
                <ns0:path xmlns:ns0="http://www.w3.org/2000/svg" d="M64 96H0c0 123.7 100.3 224 224 224v144c0 8.8 7.2 16 16 16h32c8.8 0 16-7.2 16-16V320C288 196.3 187.7 96 64 96zm384-64c-84.2 0-157.4 46.5-195.7 115.2 27.7 30.2 48.2 66.9 59 107.6C424 243.1 512 147.9 512 32h-64z" />
            </g>
        </g>

        <g transform="translate(16 6) scale(0.1413623085345039 0.1413623085345039)"
           style="fill: #90ff7e">
            <g transform="rotate(119 0 0)">
                <ns0:path xmlns:ns0="http://www.w3.org/2000/svg" d="M64 96H0c0 123.7 100.3 224 224 224v144c0 8.8 7.2 16 16 16h32c8.8 0 16-7.2 16-16V320C288 196.3 187.7 96 64 96zm384-64c-84.2 0-157.4 46.5-195.7 115.2 27.7 30.2 48.2 66.9 59 107.6C424 243.1 512 147.9 512 32h-64z" />
            </g>
        </g>

        <g transform="translate(1128 381) scale(0.24641262051190155 0.24641262051190155)"
           style="fill: #52fe37">
            <g transform="rotate(243 0 0)">
                <ns0:path xmlns:ns0="http://www.w3.org/2000/svg" d="M64 96H0c0 123.7 100.3 224 224 224v144c0 8.8 7.2 16 16 16h32c8.8 0 16-7.2 16-16V320C288 196.3 187.7 96 64 96zm384-64c-84.2 0-157.4 46.5-195.7 115.2 27.7 30.2 48.2 66.9 59 107.6C424 243.1 512 147.9 512 32h-64z" />
            </g>
        </g>

        <g transform="translate(255 -35) scale(0.14246816677243213 0.14246816677243213)"
           style="fill: #84ff71">
            <g transform="rotate(6 0 0)">
                <ns0:path xmlns:ns0="http://www.w3.org/2000/svg" d="M64 96H0c0 123.7 100.3 224 224 224v144c0 8.8 7.2 16 16 16h32c8.8 0 16-7.2 16-16V320C288 196.3 187.7 96 64 96zm384-64c-84.2 0-157.4 46.5-195.7 115.2 27.7 30.2 48.2 66.9 59 107.6C424 243.1 512 147.9 512 32h-64z" />
            </g>
        </g>
</svg>